<svg width="28" height="31" viewBox="0 0 28 31" fill="none" xmlns="http://www.w3.org/2000/svg">
<path d="M3.5 27.25H8.75V18.5C8.75 18.0042 8.918 17.5888 9.254 17.254C9.59 16.9192 10.0053 16.7512 10.5 16.75H17.5C17.9958 16.75 18.4118 16.918 18.7478 17.254C19.0838 17.59 19.2512 18.0053 19.25 18.5V27.25H24.5V11.5L14 3.625L3.5 11.5V27.25ZM0 27.25V11.5C0 10.9458 0.12425 10.4208 0.37275 9.925C0.62125 9.42917 0.963667 9.02083 1.4 8.7L11.9 0.825C12.5125 0.358333 13.2125 0.125 14 0.125C14.7875 0.125 15.4875 0.358333 16.1 0.825L26.6 8.7C27.0375 9.02083 27.3805 9.42917 27.629 9.925C27.8775 10.4208 28.0012 10.9458 28 11.5V27.25C28 28.2125 27.657 29.0368 26.971 29.7228C26.285 30.4088 25.4613 30.7512 24.5 30.75H17.5C17.0042 30.75 16.5888 30.582 16.254 30.246C15.9192 29.91 15.7512 29.4947 15.75 29V20.25H12.25V29C12.25 29.4958 12.082 29.9117 11.746 30.2477C11.41 30.5837 10.9947 30.7512 10.5 30.75H3.5C2.5375 30.75 1.71383 30.4076 1.029 29.7228C0.344166 29.0379 0.00116667 28.2137 0 27.25Z" fill="white"/>
</svg>
