<svg width="59" height="59" viewBox="0 0 59 59" fill="none" xmlns="http://www.w3.org/2000/svg">
<path d="M29.5 0C13.2076 0 0 13.2076 0 29.5C0 45.7924 13.2076 59 29.5 59C45.7924 59 59 45.7924 59 29.5C59 13.2076 45.7924 0 29.5 0ZM39.4248 9.21501C40.2897 9.22185 41.1293 9.54084 41.7636 10.1752L46.6728 15.0825C48.0298 16.4396 47.9369 18.726 46.4691 20.1972C44.9978 21.6685 42.7078 21.756 41.3545 20.4027L36.4472 15.4954C35.0901 14.1421 35.185 11.8483 36.6527 10.3807C37.4324 9.59901 38.4448 9.20729 39.4248 9.21501ZM31.3363 15.699L41.1528 25.5136L25.1998 41.4628L15.3833 31.6464L31.3363 15.699ZM12.8353 33.5051L23.1898 43.8596L10.2424 46.4524L12.8353 33.5051Z" fill="#97AFE3"/>
</svg>
