<svg width="58" height="58" viewBox="0 0 58 58" fill="none" xmlns="http://www.w3.org/2000/svg">
<path d="M29.0027 20.5C26.7483 20.5 24.5863 21.3955 22.9923 22.9896C21.3982 24.5836 20.5027 26.7457 20.5027 29C20.5027 31.2543 21.3982 33.4163 22.9923 35.0104C24.5863 36.6045 26.7483 37.5 29.0027 37.5C31.257 37.5 33.419 36.6045 35.0131 35.0104C36.6071 33.4163 37.5027 31.2543 37.5027 29C37.5027 26.7457 36.6071 24.5836 35.0131 22.9896C33.419 21.3955 31.257 20.5 29.0027 20.5ZM29.0027 14.8333C32.7599 14.8333 36.3633 16.3259 39.02 18.9826C41.6768 21.6394 43.1693 25.2428 43.1693 29C43.1693 32.7572 41.6768 36.3606 39.02 39.0173C36.3633 41.6741 32.7599 43.1667 29.0027 43.1667C25.2454 43.1667 21.6421 41.6741 18.9853 39.0173C16.3286 36.3606 14.836 32.7572 14.836 29C14.836 25.2428 16.3286 21.6394 18.9853 18.9826C21.6421 16.3259 25.2454 14.8333 29.0027 14.8333ZM47.4193 14.125C47.4193 15.0643 47.0462 15.9651 46.382 16.6293C45.7178 17.2935 44.817 17.6667 43.8777 17.6667C42.9384 17.6667 42.0375 17.2935 41.3733 16.6293C40.7091 15.9651 40.336 15.0643 40.336 14.125C40.336 13.1857 40.7091 12.2848 41.3733 11.6207C42.0375 10.9565 42.9384 10.5833 43.8777 10.5833C44.817 10.5833 45.7178 10.9565 46.382 11.6207C47.0462 12.2848 47.4193 13.1857 47.4193 14.125ZM29.0027 6.33332C21.993 6.33332 20.8483 6.35316 17.5872 6.49766C15.3658 6.60249 13.8755 6.89999 12.4928 7.43832C11.3364 7.86437 10.2905 8.54512 9.43284 9.43016C8.54678 10.2876 7.86505 11.3334 7.43817 12.4902C6.89984 13.8785 6.60234 15.366 6.50034 17.5845C6.353 20.7125 6.33317 21.8062 6.33317 29C6.33317 36.0125 6.353 37.1543 6.4975 40.4155C6.60234 42.634 6.89984 44.1272 7.43534 45.507C7.917 46.7395 8.48367 47.6263 9.42434 48.567C10.3792 49.519 11.266 50.0885 12.4843 50.5588C13.884 51.1 15.3743 51.4003 17.5843 51.5023C20.7123 51.6497 21.806 51.6667 28.9998 51.6667C36.0123 51.6667 37.1542 51.6468 40.4153 51.5023C42.631 51.3975 44.1213 51.1 45.5068 50.5645C46.6633 50.1384 47.7091 49.4577 48.5668 48.5727C49.5217 47.6207 50.0912 46.7338 50.5615 45.5127C51.0998 44.1187 51.4002 42.6283 51.5022 40.4127C51.6495 37.2875 51.6665 36.191 51.6665 29C51.6665 21.9903 51.6467 20.8457 51.5022 17.5845C51.3973 15.3688 51.097 13.8728 50.5615 12.4902C50.1355 11.3337 49.4547 10.2879 48.5697 9.43016C47.7123 8.5441 46.6664 7.86237 45.5097 7.43549C44.1213 6.89716 42.631 6.59966 40.4153 6.49766C37.2902 6.35032 36.1965 6.33332 28.9998 6.33332M28.9998 0.666656C36.698 0.666656 37.6585 0.69499 40.6817 0.836656C43.6963 0.978323 45.7533 1.45149 47.5582 2.15416C49.4282 2.87382 51.0035 3.84849 52.5788 5.42099C54.0201 6.8369 55.135 8.55033 55.8457 10.4417C56.5455 12.2465 57.0215 14.3035 57.1632 17.321C57.2963 20.3413 57.3332 21.3018 57.3332 29C57.3332 36.6982 57.3048 37.6587 57.1632 40.679C57.0215 43.6993 56.5455 45.7507 55.8457 47.5583C55.135 49.4497 54.0201 51.1631 52.5788 52.579C51.1629 54.0203 49.4495 55.1352 47.5582 55.8458C45.7533 56.5457 43.6963 57.0217 40.6817 57.1633C37.6585 57.2965 36.698 57.3333 28.9998 57.3333C21.3017 57.3333 20.3412 57.305 17.318 57.1633C14.3033 57.0217 12.2492 56.5457 10.4415 55.8458C8.55018 55.1352 6.83675 54.0203 5.42084 52.579C3.97954 51.1631 2.86465 49.4497 2.154 47.5583C1.45134 45.7535 0.97817 43.6965 0.836504 40.679C0.700504 37.6587 0.666504 36.6982 0.666504 29C0.666504 21.3018 0.694837 20.3413 0.836504 17.321C0.97817 14.3007 1.45134 12.2493 2.154 10.4417C2.86465 8.55033 3.97954 6.8369 5.42084 5.42099C6.83675 3.97969 8.55018 2.8648 10.4415 2.15416C12.2463 1.45149 14.3005 0.978323 17.318 0.836656C20.344 0.70349 21.3045 0.666656 29.0027 0.666656" fill="white"/>
</svg>
