<svg width="51" height="41" viewBox="0 0 51 41" fill="none" xmlns="http://www.w3.org/2000/svg">
<path d="M5.16683 40.8334C3.76891 40.8334 2.57264 40.336 1.578 39.3414C0.583357 38.3468 0.0851905 37.1496 0.0834961 35.75V5.25002C0.0834961 3.8521 0.581663 2.65583 1.578 1.66119C2.57433 0.666548 3.77061 0.168381 5.16683 0.166687H45.8335C47.2314 0.166687 48.4285 0.664853 49.4249 1.66119C50.4212 2.65752 50.9185 3.8538 50.9168 5.25002V35.75C50.9168 37.1479 50.4195 38.3451 49.4249 39.3414C48.4302 40.3377 47.2331 40.835 45.8335 40.8334H5.16683ZM25.5002 23.0417L45.8335 10.3334V5.25002L25.5002 17.9584L5.16683 5.25002V10.3334L25.5002 23.0417Z" fill="white"/>
</svg>
