<svg width="31" height="31" viewBox="0 0 31 31" fill="none" xmlns="http://www.w3.org/2000/svg">
<path fill-rule="evenodd" clip-rule="evenodd" d="M19.9286 7.75C19.9286 8.92453 19.462 10.051 18.6315 10.8815C17.801 11.712 16.6745 12.1786 15.5 12.1786C14.3255 12.1786 13.199 11.712 12.3685 10.8815C11.538 10.051 11.0714 8.92453 11.0714 7.75C11.0714 6.57547 11.538 5.44905 12.3685 4.61853C13.199 3.78801 14.3255 3.32143 15.5 3.32143C16.6745 3.32143 17.801 3.78801 18.6315 4.61853C19.462 5.44905 19.9286 6.57547 19.9286 7.75ZM23.25 7.75C23.25 9.80543 22.4335 11.7767 20.9801 13.2301C19.5267 14.6835 17.5554 15.5 15.5 15.5C13.4446 15.5 11.4733 14.6835 10.0199 13.2301C8.56652 11.7767 7.75 9.80543 7.75 7.75C7.75 5.69457 8.56652 3.72333 10.0199 2.26992C11.4733 0.816515 13.4446 0 15.5 0C17.5554 0 19.5267 0.816515 20.9801 2.26992C22.4335 3.72333 23.25 5.69457 23.25 7.75ZM3.32143 25.4643C3.32143 25.0126 3.80857 23.6729 6.24429 22.2336C8.49843 20.9029 11.78 19.9286 15.5 19.9286C19.22 19.9286 22.5016 20.9029 24.7557 22.2336C27.1914 23.6729 27.6786 25.0126 27.6786 25.4643C27.6786 26.0516 27.4453 26.6148 27.03 27.03C26.6148 27.4453 26.0516 27.6786 25.4643 27.6786H5.53571C4.94845 27.6786 4.38524 27.4453 3.96998 27.03C3.55472 26.6148 3.32143 26.0516 3.32143 25.4643ZM15.5 16.6071C6.975 16.6071 0 21.0357 0 25.4643C0 26.9324 0.583225 28.3405 1.62137 29.3786C2.65952 30.4168 4.06755 31 5.53571 31H25.4643C26.9324 31 28.3405 30.4168 29.3786 29.3786C30.4168 28.3405 31 26.9324 31 25.4643C31 21.0357 24.025 16.6071 15.5 16.6071Z" fill="white"/>
</svg>
